<?xml version="1.0" encoding="utf-8"?>
<!-- Generator: Adobe Illustrator 22.0.1, SVG Export Plug-In . SVG Version: 6.00 Build 0)  -->
<svg version="1.1" id="Layer_1" xmlns="http://www.w3.org/2000/svg" xmlns:xlink="http://www.w3.org/1999/xlink" x="0px" y="0px"
	 viewBox="0 0 50 50" style="enable-background:new 0 0 50 50;" xml:space="preserve">
<style type="text/css">
	.st0{fill:#FFFFFF;}
</style>
<g>
	<path class="st0" d="M12.066,31.481c-0.702-0.07-1.067,1.793-1.965,0.405c-1.916-2.963-1.892-3.057-0.17-4.089
		c0.104-0.063,0.208-0.128,0.306-0.199c0.762-0.558,2.131-0.692,2.236-1.637c0.142-1.286-0.128-2.688-0.529-3.941
		c-0.318-0.992-1.568-0.743-2.393-0.981c-2.377-0.686-2.391-0.625-1.8-2.982c0.354-1.411,0.773-2.812,1.018-4.243
		c0.23-1.343,0.93-1.485,2.076-1.197c3.354,0.842,3.771,0.616,5.53-2.38c0.528-0.898-0.204-1.362-0.522-1.926
		c-1.581-2.801-1.603-2.789,1.124-4.5c0.309-0.194,0.625-0.378,0.94-0.563c3.36-1.975,3.387-1.992,5.526,1.319
		c0.405,0.626,0.779,0.852,1.453,0.648c0.057-0.017,0.121-0.021,0.181-0.019c2.536,0.058,4.17-0.911,4.315-3.683
		c0.068-1.305,0.711-1.589,1.976-1.171c1.606,0.531,3.287,0.839,4.942,1.214c1.119,0.254,1.809,0.722,1.197,1.996
		c-0.025,0.052-0.014,0.121-0.027,0.18c-0.655,3.109-0.261,3.882,2.48,5.489c0.79,0.463,1.141-0.148,1.589-0.401
		c3.166-1.79,3.156-1.809,5.034,1.314c0.094,0.156,0.182,0.315,0.276,0.471c2.082,3.458,2.093,3.476-1.283,5.648
		c-0.598,0.385-0.926,0.741-0.646,1.447c0.045,0.113,0.122,0.234,0.112,0.345c-0.252,2.718,1.112,3.926,3.71,4.101
		c1.049,0.071,1.442,0.72,1.157,1.782c-0.503,1.875-0.999,3.754-1.423,5.647c-0.175,0.783-0.596,0.995-1.297,0.9
		c-0.24-0.032-0.477-0.096-0.713-0.153c-3.152-0.762-3.99-0.367-5.526,2.431c-0.457,0.832,0.185,1.244,0.494,1.768
		c2.021,3.424,2.051,2.769-1.127,4.645c-1.046,0.617-2.079,1.256-3.103,1.908c-0.875,0.557-1.587,0.584-2.035-0.512
		c-0.045-0.111-0.128-0.207-0.195-0.309c-0.588-0.908-0.844-2.4-1.823-2.591c-1.232-0.24-2.623,0.245-3.928,0.503
		c-0.9,0.178-0.62,1.106-0.777,1.665c-0.891,3.163-0.852,3.174-3.946,2.392c-0.47-0.119-0.953-0.2-1.409-0.361
		c-1.162-0.41-3.225-0.103-3.307-1.317c-0.12-1.794,0.191-3.866,1.734-5.32c0.488-0.46,1.001-0.898,1.447-1.395
		c0.727-0.811,1.47-0.95,2.58-0.664c4.868,1.257,9.095-0.082,12.326-3.858c3.189-3.726,3.872-8.089,1.891-12.616
		c-2.073-4.737-5.928-7.316-11.031-7.319c-8.621-0.006-13.891,8.113-11.665,15.586c-0.069,0.231,0.079,0.322,0.256,0.395
		c-0.004,0.219-0.008,0.437-0.011,0.656C15.569,27.833,13.818,29.657,12.066,31.481z"/>
	<path class="st0" d="M18.224,26.858c1.609-1.851,3.171-3.521,3.373-6.347c0.304-4.241,4.378-6.735,9.045-5.562
		c-1.508,1.329-2.761,2.466-4.051,3.559c-0.991,0.839-1.089,1.518-0.077,2.526c3.527,3.516,3.498,3.558,7.001,0.016
		c0.42-0.425,0.725-0.964,1.183-1.587c1.677,4.049-1.531,8.683-5.752,8.76c-1.384,0.025-2.394,0.455-3.421,1.286
		c-5.807,4.7-10.914,10.067-15.444,15.995c-1.112,1.456-2.32,2.825-3.963,3.706c-1.962,1.051-3.223,0.799-4.868-0.906
		c-1.442-1.495-1.642-3.018-0.573-4.786c1.059-1.752,2.568-3.074,4.22-4.239c3.081-2.171,5.737-4.837,8.546-7.325
		C15.248,30.454,16.838,28.751,18.224,26.858z M5.048,42.9c-1.577-0.353-1.891,0.564-1.867,1.841
		c0.022,1.18,0.328,1.884,1.783,1.873c1.486-0.011,2.065-0.453,2.039-1.982C6.978,43.194,6.459,42.612,5.048,42.9z"/>
</g>
</svg>
