<?xml version="1.0" encoding="utf-8"?>
<!-- Generator: Adobe Illustrator 22.0.1, SVG Export Plug-In . SVG Version: 6.00 Build 0)  -->
<svg version="1.1" id="Layer_1" xmlns="http://www.w3.org/2000/svg" xmlns:xlink="http://www.w3.org/1999/xlink" x="0px" y="0px"
	 viewBox="0 0 50 50" style="enable-background:new 0 0 50 50;" xml:space="preserve">
<style type="text/css">
	.st0{fill:#FFFFFF;}
</style>
<g>
	<path class="st0" d="M49.876,27.648c0.043,1.56,0.104,3.12,0.123,4.68c0.022,1.771-0.376,2.189-2.094,2.168
		c-3.122-0.037-6.242-0.11-9.349-0.465c-0.637-0.073-1.143-0.306-1.39-0.902c-0.258-0.624-0.177-1.22,0.321-1.728
		c0.68-0.695,1.329-1.421,2.034-2.089c0.387-0.366,0.338-0.621-0.004-0.96c-2.209-2.192-4.419-4.383-6.605-6.597
		c-0.592-0.599-0.989-0.3-1.438,0.152c-1.723,1.735-3.502,3.417-5.173,5.201c-1.622,1.731-3.22,2.105-5.227,0.068
		C14.561,20.568,7.966,14.041,1.412,7.473C0.902,6.962,0.469,6.374,0,5.823c0-0.469,0-0.939,0-1.408
		c0.404-0.688,0.803-1.369,1.475-1.857c1.273-0.924,2.569-0.917,3.693,0.188c3.153,3.099,6.274,6.229,9.402,9.353
		c2.855,2.852,5.71,5.703,8.546,8.574c0.454,0.46,0.71,0.356,1.121-0.064c1.846-1.884,3.734-3.727,5.599-5.592
		c1.738-1.737,3.081-1.765,4.797-0.058c2.945,2.93,5.896,5.856,8.811,8.816c0.65,0.66,1.104,0.664,1.668-0.06
		c0.379-0.487,0.822-0.938,1.298-1.331c0.59-0.487,1.209-1.131,2.074-0.675c0.8,0.422,1.262,1.101,1.263,2.077
		C49.749,25.074,49.83,26.361,49.876,27.648z"/>
	<path class="st0" d="M2.428,30.761c0-5.08-0.004-10.16,0.008-15.24c0.001-0.325-0.198-0.794,0.209-0.945
		c0.376-0.139,0.595,0.291,0.836,0.532c2.369,2.362,4.724,4.739,7.113,7.081c0.357,0.35,0.428,0.705,0.427,1.145
		c-0.002,7.698,0.003,15.397-0.006,23.095c-0.001,1.255-0.425,1.651-1.717,1.662c-1.641,0.014-3.283,0.009-4.924,0.002
		c-1.47-0.006-1.935-0.458-1.941-1.974c-0.015-4.064-0.005-8.128-0.006-12.192C2.428,32.871,2.428,31.816,2.428,30.761z"/>
	<path class="st0" d="M14.324,36.568c0-3.125-0.004-6.25,0.008-9.374c0.001-0.283-0.174-0.694,0.217-0.82
		c0.282-0.091,0.452,0.247,0.642,0.431c1.337,1.297,2.65,2.618,4.01,3.89c0.767,0.718,1.604,1.348,2.705,1.51
		c0.682,0.1,0.904,0.509,0.897,1.229c-0.038,4.296-0.014,8.593-0.022,12.89c-0.003,1.485-0.292,1.76-1.81,1.769
		c-1.601,0.009-3.203,0.009-4.804,0c-1.413-0.008-1.768-0.34-1.833-1.798c-0.044-0.975-0.01-1.953-0.011-2.929
		C14.323,41.099,14.323,38.834,14.324,36.568z"/>
	<path class="st0" d="M26.216,39.741c0-2.228,0.018-4.457-0.011-6.685c-0.009-0.731,0.199-1.128,0.893-1.552
		c1.629-0.996,2.86-2.501,4.154-3.886c0.785-0.84,1.263-0.829,2.046-0.029c0.791,0.808,1.086,1.35,0.423,2.536
		c-0.917,1.64-0.926,3.521,0.233,5.189c0.441,0.635,0.626,1.279,0.616,2.059c-0.039,2.97-0.008,5.942-0.019,8.913
		c-0.006,1.551-0.248,1.794-1.762,1.805c-1.642,0.012-3.284,0.013-4.925,0c-1.39-0.012-1.631-0.247-1.643-1.665
		C26.203,44.198,26.216,41.969,26.216,39.741z"/>
	<path class="st0" d="M37.993,42.733c0-1.288,0.023-2.576-0.01-3.863c-0.016-0.635,0.153-0.918,0.854-0.87
		c2.256,0.155,4.515,0.271,6.774,0.377c0.6,0.028,0.823,0.301,0.82,0.875c-0.012,2.419,0.014,4.839-0.02,7.258
		c-0.015,1.048-0.51,1.639-1.681,1.599c-1.715-0.058-3.434-0.001-5.151-0.019c-1.296-0.014-1.565-0.292-1.582-1.611
		C37.98,45.23,37.993,43.981,37.993,42.733z"/>
</g>
</svg>
