<?xml version="1.0" encoding="utf-8"?>
<!-- Generator: Adobe Illustrator 22.0.1, SVG Export Plug-In . SVG Version: 6.00 Build 0)  -->
<svg version="1.1" id="Layer_1" xmlns="http://www.w3.org/2000/svg" xmlns:xlink="http://www.w3.org/1999/xlink" x="0px" y="0px"
	 viewBox="0 0 50 50" style="enable-background:new 0 0 50 50;" xml:space="preserve">
<style type="text/css">
	.st0{fill:#FFFFFF;}
</style>
<g>
	<path class="st0" d="M24.936,48.78c-5.663-3.891-8.021-9.222-6.901-16.027c0.348-2.114,1.301-3.998,2.437-5.793
		c0.453-0.556,0.906-1.112,1.36-1.668c0.134-0.067,0.245-0.155,0.289-0.306c0.255-0.244,0.511-0.489,0.766-0.733
		c2.186-1.768,4.591-3.084,7.4-3.553c0.408-0.068,0.343-0.36,0.343-0.632c0-4.828,0-9.656-0.001-14.485
		c0-0.956-0.411-1.715-1.187-2.244c-0.906-0.617-1.889-0.691-2.858-0.164c-0.962,0.523-1.456,1.356-1.455,2.471
		c0.003,4.955,0.002,9.909-0.001,14.864c0,0.353,0.137,0.732-0.522,0.721c-0.618-0.01-0.671-0.246-0.668-0.757
		c0.02-3.463,0.012-6.926,0.012-10.39c0-2.199,0.017-4.399-0.007-6.598c-0.02-1.831-1.774-3.135-3.482-2.626
		c-1.315,0.392-2.015,1.391-2.016,2.923c-0.005,5.865-0.031,11.73,0.026,17.594c0.009,0.954-0.39,1.279-1.222,1.477
		c0-0.282,0-0.53,0-0.777c0-4.727,0.001-9.454-0.003-14.181c0-0.275-0.037-0.55-0.056-0.825c-0.026-0.096-0.053-0.192-0.079-0.288
		c-0.296-1.336-1.407-2.173-2.79-2.134c-1.255,0.036-2.517,1.194-2.522,2.27c-0.024,0.1-0.048,0.2-0.072,0.301
		c-0.015,1.561-0.043,3.122-0.041,4.683c0.004,3.553,0.022,7.105,0.034,10.658c-0.037,0.045-0.037,0.091,0,0.136
		c0.002,0.158,0.005,0.317,0.007,0.475c-0.002,0.194-0.004,0.388-0.006,0.582c-0.001,0.766-0.001,1.532-0.002,2.298
		c0.003,0.295,0.005,0.59,0.008,0.885c0,0.794,0,1.588,0,2.381c-0.052,0.007-0.104,0.013-0.155,0.02
		c-0.336-0.795-0.672-1.59-1.008-2.385c-0.397-1.133-0.802-2.263-1.346-3.336c-0.473-1.981-1.902-2.943-3.612-2.42
		c-1.124,0.344-1.654,1.224-1.993,2.266c0,0.253,0,0.506,0,0.758c0.587,1.946,0.901,3.955,1.36,5.93
		c0.591,2.544,0.959,5.159,1.768,7.63c1.88,5.744,6.102,9.098,11.736,10.869c0.704,0.221,1.473,0.202,2.125,0.599
		c1.466,0,2.933,0,4.399,0C25.334,49.042,25.196,48.958,24.936,48.78z"/>
	<path class="st0" d="M46.258,33.47c-0.804-4.387-3.231-7.6-7.152-9.64c-2.768-1.44-5.726-1.839-8.797-1.114
		c-0.381,0.013-0.743,0.101-1.078,0.286c-0.44,0.04-0.836,0.205-1.213,0.426c-0.391,0.076-0.732,0.257-1.045,0.496
		c-0.051,0.007-0.101,0.014-0.152,0.021c-0.254,0.151-0.507,0.302-0.761,0.452c-0.289,0.142-0.557,0.311-0.767,0.56
		c-0.177,0.069-0.343,0.153-0.44,0.329c-0.469,0.29-0.895,0.629-1.22,1.082c-0.042,0.045-0.085,0.09-0.127,0.135
		c-0.077,0.063-0.161,0.118-0.229,0.19c-6.771,7.161-3.445,19.229,6.038,21.955c0.782,0.225,1.624,0.202,2.358,0.603
		c0.809,0,1.618,0,2.427,0c0.633-0.306,1.341-0.244,2.006-0.421c5.216-1.384,8.529-4.677,9.987-9.86
		c0.063-0.225,0.016-0.51,0.294-0.641c0-1.567,0-3.135,0-4.702C46.343,33.575,46.269,33.528,46.258,33.47z M33.091,47.165
		c-6.423-0.03-11.541-5.215-11.4-11.623c0.071-3.198,1.322-5.916,3.654-8.125c0.251-0.238,0.587-0.401,0.724-0.751
		c0.171-0.193,0.546-0.115,0.605-0.456c0.671-0.136,1.177-0.61,1.793-0.867c0.757-0.316,1.536-0.547,2.319-0.776c0,0,0,0,0,0
		c0.045-0.013,0.091-0.026,0.136-0.039c0.098-0.009,0.197-0.018,0.295-0.027c0.456-0.052,0.912-0.103,1.368-0.155
		c0.404,0.001,0.807,0.003,1.211,0.004c1.132,0.162,2.256,0.36,3.341,0.737c0.4,0.168,0.799,0.336,1.199,0.504
		c0.026,0.078,0.065,0.137,0.162,0.112c0.295,0.167,0.591,0.335,0.886,0.502c0.263,0.194,0.525,0.389,0.788,0.583
		c1.941,1.702,3.345,3.728,3.982,6.275C45.939,40.198,40.461,47.199,33.091,47.165z M30.85,24.531
		c-0.017,0.005-0.033,0.014-0.048,0.026C30.817,24.545,30.833,24.536,30.85,24.531z"/>
	<path class="st0" d="M32.187,20.442c1.52-0.083,3.027,0.013,4.5,0.425c0.426,0.119,0.511-0.063,0.498-0.452
		c-0.025-0.757-0.007-1.516-0.007-2.274c-0.004,0-0.008,0-0.011,0c0-0.758,0.031-1.518-0.007-2.274
		c-0.072-1.461-1.282-2.574-2.746-2.568c-1.46,0.006-2.694,1.142-2.736,2.586c-0.039,1.363,0.007,2.729-0.022,4.093
		C31.646,20.415,31.82,20.462,32.187,20.442z"/>
	<path class="st0" d="M38.528,34.359c-0.473-0.021-0.528-0.208-0.518-0.594c0.021-0.758,0.028-1.517,0.002-2.275
		c-0.09-2.596-1.987-4.679-4.404-4.86c-2.697-0.201-4.888,1.413-5.341,4.06c-0.168,0.984-0.08,2.015-0.075,3.025
		c0.002,0.411-0.031,0.625-0.55,0.646c-1.131,0.045-1.727,0.723-1.733,1.859c-0.008,1.618-0.006,3.236-0.001,4.854
		c0.004,1.281,0.679,1.959,1.955,1.963c1.744,0.006,3.489,0.001,5.233,0.001c1.744,0,3.489,0.004,5.233-0.001
		c1.225-0.004,1.945-0.686,1.96-1.899c0.02-1.643,0.019-3.286,0-4.929C40.275,35.08,39.655,34.409,38.528,34.359z M33.965,38.875
		c-0.318,0.341-0.157,0.768-0.154,1.151c0.004,0.527-0.16,0.951-0.703,0.97c-0.558,0.019-0.745-0.404-0.72-0.931
		c0.024-0.525-0.014-1.005-0.347-1.491c-0.299-0.436-0.247-1.037-0.011-1.528c0.251-0.522,0.726-0.8,1.307-0.652
		c0.711,0.181,1.001,0.705,0.925,1.426C34.297,38.211,34.248,38.573,33.965,38.875z M35.863,34.35
		c-0.931-0.038-1.866-0.011-2.799-0.011c-0.983-0.001-1.967-0.013-2.95,0.006c-0.346,0.006-0.512-0.08-0.5-0.458
		c0.03-0.932-0.026-1.87,0.063-2.795c0.175-1.821,1.773-3.152,3.587-3.065c1.803,0.086,3.24,1.577,3.273,3.408
		c0.013,0.756-0.035,1.516,0.016,2.268C36.59,34.268,36.366,34.37,35.863,34.35z"/>
</g>
</svg>
